<svg width="138" height="46" viewBox="0 0 138 46" fill="none" xmlns="http://www.w3.org/2000/svg">
<g clip-path="url(#clip0_518_2886)">
<path d="M37.4069 16.4023C36.8067 15.2759 36.0864 14.4713 35.166 13.908C34.2456 13.3448 33.1651 13.0632 31.9246 13.0632C30.2839 13.0632 28.8833 13.6667 27.7628 14.8736C26.6424 16.0805 26.0821 17.6092 26.0821 19.4195C26.0821 21.2299 26.6424 22.7184 27.8029 23.9253C28.9634 25.1322 30.3639 25.6954 32.1247 25.6954C33.4452 25.6954 34.5657 25.4138 35.4461 24.8506C36.3265 24.2874 37.0067 23.4023 37.4069 22.2759H42.6091C41.9688 24.8908 40.7283 26.9023 38.8875 28.3908C37.0468 29.8793 34.8058 30.6034 32.1247 30.6034C30.564 30.6034 29.1234 30.3218 27.8029 29.7586C26.4823 29.1954 25.2818 28.3908 24.2013 27.2644C23.2009 26.2184 22.4406 25.0517 21.8804 23.6437C21.2801 22.3161 21 20.908 21 19.5C21 18.0115 21.2401 16.6034 21.7603 15.3161C22.2805 14.0287 23.0409 12.8621 24.0413 11.8161C25.1618 10.6494 26.3623 9.76437 27.7628 9.16092C29.1234 8.55747 30.6441 8.23563 32.2047 8.23563C34.7658 8.23563 37.0067 8.95977 38.9275 10.4483C40.8083 11.9368 42.0489 13.908 42.6491 16.4023H37.4069ZM86.3475 10.569V2H91.1896V30.0805H86.3475V28.3506C85.3871 29.1149 84.3467 29.6782 83.3062 30.0805C82.2258 30.4425 81.0653 30.6437 79.8248 30.6437C78.5042 30.6437 77.2637 30.4425 76.0632 30C74.9027 29.5575 73.8222 28.954 72.9019 28.1494C71.6213 27.023 70.6609 25.7356 69.9806 24.2069C69.3003 22.6782 68.9402 21.1092 68.9402 19.4195C68.9402 17.8506 69.2603 16.3621 69.9006 14.9138C70.5409 13.4655 71.4212 12.2184 72.5817 11.1724C73.5421 10.2471 74.6226 9.56322 75.8631 9.08046C77.1036 8.5977 78.4242 8.35632 79.8248 8.35632C81.1853 8.35632 82.3858 8.51724 83.4263 8.87931C84.4267 9.24138 85.4271 9.8046 86.3475 10.569ZM86.1474 19.5402C86.1474 17.7299 85.5872 16.2011 84.4267 14.9943C83.2662 13.7874 81.8656 13.1839 80.1449 13.1839C78.4642 13.1839 77.0236 13.7874 75.8231 15.0345C74.6226 16.2816 74.0223 17.7299 74.0223 19.4598C74.0223 21.2299 74.6226 22.7184 75.8231 23.9253C77.0236 25.1322 78.5442 25.6954 80.385 25.6954C81.9857 25.6954 83.3463 25.092 84.4667 23.8851C85.5472 22.7586 86.1474 21.2701 86.1474 19.5402ZM99.0729 21.0287C99.2329 22.5575 99.8332 23.7644 100.874 24.6494C101.914 25.5345 103.275 25.977 104.915 25.977C106.036 25.977 106.996 25.7356 107.877 25.2931C108.757 24.8103 109.437 24.1667 109.957 23.3621H115.24C114.359 25.6552 112.999 27.4655 111.238 28.7529C109.437 30.0402 107.396 30.6839 105.035 30.6839C103.475 30.6839 102.034 30.4023 100.714 29.8391C99.393 29.2759 98.1925 28.4713 97.1521 27.3448C96.1516 26.2988 95.3913 25.092 94.8311 23.7241C94.2709 22.3563 93.9907 20.9483 93.9907 19.5402C93.9907 18.0517 94.2308 16.6839 94.7511 15.3563C95.2713 14.069 95.9916 12.8621 96.992 11.8563C98.0724 10.7299 99.273 9.84483 100.634 9.20115C101.994 8.5977 103.395 8.27586 104.835 8.27586C106.676 8.27586 108.357 8.67816 109.957 9.52299C111.558 10.3678 112.879 11.5345 113.999 13.0632C114.679 13.9885 115.16 14.9943 115.52 16.1207C115.84 17.2471 116 18.5345 116 20.023C116 20.1437 116 20.3046 116 20.546C116 20.7874 116 20.9483 116 21.069L99.0729 21.0287ZM110.678 17.1264C110.278 15.7184 109.557 14.6322 108.557 13.908C107.556 13.1839 106.316 12.7816 104.795 12.7816C103.515 12.7816 102.314 13.1839 101.274 13.9885C100.233 14.7931 99.5531 15.8391 99.1929 17.1264H110.678Z" fill="#4A4A4F"/>
<path d="M44.77 19.3793C44.77 17.8908 45.0501 16.4827 45.5704 15.1149C46.1306 13.7873 46.8909 12.5804 47.9314 11.5344C48.9718 10.4482 50.1723 9.64364 51.5329 9.08042C52.8534 8.51721 54.254 8.2356 55.6946 8.2356C57.2153 8.2356 58.6158 8.47697 59.8964 8.99996C61.1769 9.52295 62.3774 10.2471 63.4579 11.2931C64.5784 12.3793 65.4187 13.5862 66.019 14.9942C66.6192 16.4023 66.9394 17.8103 66.9394 19.2988C66.9394 20.908 66.6993 22.3965 66.139 23.7241C65.6188 25.0517 64.8185 26.2586 63.778 27.3448C62.7376 28.431 61.5371 29.2758 60.1765 29.839C58.8159 30.4023 57.3753 30.6839 55.8147 30.6839C54.214 30.6839 52.7734 30.4023 51.4928 29.839C50.1723 29.2758 49.0118 28.431 47.9314 27.3046C46.8909 26.1781 46.1306 24.9712 45.6104 23.6436C45.0101 22.2356 44.77 20.8678 44.77 19.3793ZM49.8121 19.339C49.8121 21.3103 50.3324 22.8793 51.4128 24.0057C52.4933 25.1724 53.9739 25.7356 55.8147 25.7356C57.6154 25.7356 59.056 25.1321 60.1365 23.9655C61.2169 22.7988 61.7372 21.2298 61.7372 19.2184C61.7372 17.4482 61.1769 15.9597 60.0565 14.8333C58.936 13.7069 57.4954 13.1034 55.8147 13.1034C54.0539 13.1034 52.6133 13.6666 51.4928 14.8333C50.3724 16 49.8121 17.4885 49.8121 19.339ZM68.9002 35.7126V34.6666H69.9406V35.7126H68.9002ZM68.9402 43.9195V37.523H69.8606V43.9195H68.9402ZM76.5434 43.9195V39.977C76.5434 38.8505 75.9431 38.2873 74.9827 38.2873C74.0223 38.2873 73.4221 38.8505 73.4221 39.977V43.9195H72.5017V37.523H73.4221V38.2069C73.8623 37.6839 74.5025 37.4425 75.2228 37.4425C75.9031 37.4425 76.4634 37.6436 76.8635 38.0459C77.3037 38.4885 77.5038 39.0919 77.5038 39.8161V43.9195H76.5434ZM81.9857 44C80.9052 44 80.0649 43.7586 79.3846 43.0747L80.0249 42.431C80.5451 42.954 81.2254 43.1551 81.9857 43.1551C83.0261 43.1551 83.6664 42.7931 83.6664 42.0287C83.6664 41.4655 83.3463 41.1436 82.626 41.1034L81.5855 41.023C80.345 40.9023 79.6647 40.3793 79.6647 39.2931C79.6647 38.1264 80.6251 37.4425 81.9857 37.4425C82.9061 37.4425 83.7064 37.6839 84.2667 38.1264L83.6664 38.7299C83.2262 38.3678 82.626 38.2069 81.9857 38.2069C81.0653 38.2069 80.5451 38.6092 80.5451 39.2528C80.5451 39.8161 80.8652 40.1379 81.6656 40.1781L82.706 40.2586C83.8265 40.3793 84.5868 40.7816 84.5868 41.9885C84.5868 43.2758 83.5463 44 81.9857 44ZM88.3083 43.9195C87.2279 43.9195 86.6677 43.1551 86.6677 42.1896V38.2471H85.8673V37.523H86.6677V35.5115H87.588V37.523H88.9486V38.2471H87.588V42.1494C87.588 42.7126 87.8682 43.0747 88.4684 43.0747H88.9486V43.8793L88.3083 43.9195ZM91.0295 35.7126V34.6666H92.0699V35.7126H91.0295ZM91.0695 43.9195V37.523H91.9899V43.9195H91.0695ZM96.3918 43.9195C95.3113 43.9195 94.7511 43.1551 94.7511 42.1896V38.2471H93.9507V37.523H94.7511V35.5115H95.6715V37.523H97.032V38.2471H95.6715V42.1494C95.6715 42.7126 95.9516 43.0747 96.5518 43.0747H97.032V43.8793L96.3918 43.9195ZM103.155 43.9195V43.1954C102.714 43.7184 102.074 44 101.354 44C100.674 44 100.113 43.7988 99.7132 43.3965C99.273 42.954 99.0729 42.3505 99.0729 41.5862V37.523H99.9933V41.4655C99.9933 42.5919 100.594 43.1551 101.554 43.1551C102.514 43.1551 103.155 42.5919 103.155 41.4655V37.523H104.075V43.9195H103.155ZM108.437 43.9195C107.356 43.9195 106.796 43.1551 106.796 42.1896V38.2471H105.996V37.523H106.796V35.5115H107.717V37.523H109.077V38.2471H107.717V42.1494C107.717 42.7126 107.997 43.0747 108.597 43.0747H109.077V43.8793L108.437 43.9195ZM111.678 40.9827C111.678 42.3908 112.318 43.1954 113.559 43.1954C114.279 43.1954 114.719 42.954 115.24 42.4712L115.88 43.0344C115.24 43.6781 114.639 44.0402 113.559 44.0402C111.878 44.0402 110.798 43.0344 110.798 40.7816C110.798 38.7299 111.798 37.523 113.399 37.523C115.04 37.523 116 38.7299 116 40.6207V41.0632L111.678 40.9827ZM114.84 39.2126C114.599 38.6494 114.039 38.2471 113.359 38.2471C112.679 38.2471 112.118 38.6092 111.878 39.2126C111.718 39.5747 111.718 39.7758 111.678 40.2586H115.04C115 39.7758 115 39.5747 114.84 39.2126Z" fill="#E84610"/>
</g>
<defs>
<clipPath id="clip0_518_2886">
<rect width="95" height="42" fill="white" transform="translate(21 2)"/>
</clipPath>
</defs>
</svg>
