<svg width="22" height="24" viewBox="0 0 22 24" fill="none" xmlns="http://www.w3.org/2000/svg">
<path fill-rule="evenodd" clip-rule="evenodd" d="M13.07 1.19512C13.2254 1.46555 13.3257 1.76406 13.3652 2.07344C13.4047 2.38283 13.3826 2.69697 13.3002 2.99777C13.2177 3.29857 13.0765 3.58008 12.8848 3.82608C12.6931 4.07208 12.4546 4.27771 12.183 4.43112L5.073 8.47112C4.98099 8.5233 4.90441 8.59889 4.85102 8.69021C4.79763 8.78153 4.76934 8.88534 4.769 8.99112V15.3341C4.76934 15.4399 4.79763 15.5437 4.85102 15.635C4.90441 15.7263 4.98099 15.8019 5.073 15.8541L10.701 19.0531C10.7921 19.1049 10.8952 19.1322 11 19.1322C11.1048 19.1322 11.2079 19.1049 11.299 19.0531L16.927 15.8551C17.0192 15.8028 17.0958 15.7271 17.1492 15.6356C17.2026 15.5441 17.2308 15.4401 17.231 15.3341V11.3901L12.171 14.2281C11.6204 14.5371 10.97 14.6159 10.3616 14.4473C9.75313 14.2787 9.23603 13.8764 8.923 13.3281C8.76928 13.0569 8.67074 12.7579 8.63305 12.4484C8.59536 12.1389 8.61926 11.825 8.70337 11.5248C8.78749 11.2246 8.93016 10.944 9.12317 10.6991C9.31618 10.4543 9.55572 10.25 9.828 10.0981L17.067 6.03612C19.272 4.80012 22 6.38312 22 8.90112V15.8151C22 17.4351 21.127 18.9301 19.713 19.7341L13.252 23.4051C12.5655 23.795 11.7895 24 11 24C10.2105 24 9.43451 23.795 8.748 23.4051L2.287 19.7341C1.59342 19.3413 1.01636 18.7717 0.614615 18.0833C0.212869 17.3948 0.00079447 16.6122 0 15.8151V8.51012C0 6.89012 0.873 5.39512 2.287 4.59212L9.817 0.312117C10.366 0.000134438 11.0161 -0.0821194 11.6255 0.0832947C12.2348 0.248709 12.7541 0.648371 13.07 1.19512Z" fill="url(#paint0_linear_518_2137)"/>
<defs>
<linearGradient id="paint0_linear_518_2137" x1="16.558" y1="3.62912" x2="5.356" y2="21.3401" gradientUnits="userSpaceOnUse">
<stop stop-color="#FFB45B"/>
<stop offset="1" stop-color="#FF8A00"/>
</linearGradient>
</defs>
</svg>
