<svg width="138" height="36" viewBox="0 0 138 36" fill="none" xmlns="http://www.w3.org/2000/svg">
<g clip-path="url(#clip0_518_2823)">
<path d="M62.5974 18.8719C62.5974 22.8972 59.4388 25.8634 55.5625 25.8634C51.6862 25.8634 48.5276 22.8972 48.5276 18.8719C48.5276 14.8182 51.6862 11.8804 55.5625 11.8804C59.4388 11.8804 62.5974 14.8182 62.5974 18.8719ZM59.5179 18.8719C59.5179 16.3565 57.6872 14.6354 55.5625 14.6354C53.4378 14.6354 51.6071 16.3565 51.6071 18.8719C51.6071 21.3621 53.4378 23.1084 55.5625 23.1084C57.6872 23.1084 59.5179 21.359 59.5179 18.8719Z" fill="#EA4335"/>
<path d="M77.774 18.8719C77.774 22.8972 74.6153 25.8634 70.739 25.8634C66.8627 25.8634 63.7041 22.8972 63.7041 18.8719C63.7041 14.8213 66.8627 11.8804 70.739 11.8804C74.6153 11.8804 77.774 14.8182 77.774 18.8719ZM74.6944 18.8719C74.6944 16.3565 72.8637 14.6354 70.739 14.6354C68.6143 14.6354 66.7837 16.3565 66.7837 18.8719C66.7837 21.3621 68.6143 23.1084 70.739 23.1084C72.8637 23.1084 74.6944 21.359 74.6944 18.8719Z" fill="#FBBC05"/>
<path d="M92.3181 12.3028V24.8547C92.3181 30.018 89.2638 32.1268 85.6531 32.1268C82.2542 32.1268 80.2085 29.8604 79.4371 28.0069L82.1182 26.8942C82.5957 28.0321 83.7655 29.3749 85.6499 29.3749C87.9612 29.3749 89.3935 27.9533 89.3935 25.2771V24.2716H89.286C88.5967 25.1195 87.2688 25.8603 85.593 25.8603C82.0866 25.8603 78.8743 22.8153 78.8743 18.8971C78.8743 14.9506 82.0866 11.8804 85.593 11.8804C87.2656 11.8804 88.5935 12.6211 89.286 13.4438H89.3935V12.3059H92.3181V12.3028ZM89.6116 18.8971C89.6116 16.4353 87.9644 14.6354 85.8681 14.6354C83.7434 14.6354 81.9633 16.4353 81.9633 18.8971C81.9633 21.3337 83.7434 23.1084 85.8681 23.1084C87.9644 23.1084 89.6116 21.3337 89.6116 18.8971Z" fill="#4285F4"/>
<path d="M97.1397 4.94556V25.4347H94.136V4.94556H97.1397Z" fill="#34A853"/>
<path d="M108.845 21.173L111.235 22.7617C110.463 23.8996 108.604 25.8602 105.392 25.8602C101.408 25.8602 98.4329 22.79 98.4329 18.8687C98.4329 14.711 101.433 11.8772 105.047 11.8772C108.686 11.8772 110.467 14.7646 111.048 16.3249L111.368 17.1193L101.993 20.9901C102.711 22.3929 103.827 23.1084 105.392 23.1084C106.96 23.1084 108.048 22.3393 108.845 21.173ZM101.487 18.6575L107.754 16.0633C107.409 15.1901 106.372 14.5818 105.152 14.5818C103.587 14.5818 101.408 15.9593 101.487 18.6575Z" fill="#EA4335"/>
<path d="M37.1578 17.0532V14.087H47.1838C47.2818 14.604 47.3324 15.2155 47.3324 15.8774C47.3324 18.1029 46.7222 20.8547 44.7555 22.8154C42.8427 24.8012 40.3986 25.8604 37.161 25.8604C31.1599 25.8604 26.1138 20.9871 26.1138 15.0043C26.1138 9.02145 31.1599 4.14819 37.161 4.14819C40.4808 4.14819 42.8458 5.44689 44.6227 7.13961L42.5233 9.23265C41.2491 8.04113 39.5228 7.11439 37.1578 7.11439C32.7756 7.11439 29.3483 10.6354 29.3483 15.0043C29.3483 19.3732 32.7756 22.8942 37.1578 22.8942C40.0002 22.8942 41.6191 21.7562 42.6561 20.7223C43.4972 19.8838 44.0505 18.686 44.2686 17.05L37.1578 17.0532Z" fill="#4285F4"/>
</g>
<defs>
<clipPath id="clip0_518_2823">
<rect width="86" height="29" fill="white" transform="translate(26 4)"/>
</clipPath>
</defs>
</svg>
