<svg width="138" height="67" viewBox="0 0 138 67" fill="none" xmlns="http://www.w3.org/2000/svg">
<g clip-path="url(#clip0_518_2868)">
<path d="M53.4957 29.2465V41.3671H49.615V26.132L57.6268 26.1399C61.0297 26.1399 62.1889 28.5258 62.1889 30.693V41.3671H58.3152V30.7129C58.3152 29.8051 57.8426 29.2465 56.7025 29.2465H53.4957V29.2465ZM79.8841 29.0644C78.5576 29.0644 77.5311 29.7424 77.1023 30.6628C76.8482 31.2153 76.7609 31.6388 76.731 32.3154H82.7013C82.6247 30.6628 81.8709 29.0644 79.8841 29.0644ZM76.731 34.9414C76.731 36.9149 77.9649 38.3674 80.168 38.3674C81.8821 38.3674 82.734 37.8951 83.7251 36.9149L86.122 39.1902C84.5872 40.6966 82.9769 41.6114 80.1395 41.6114C76.4246 41.6114 72.8694 39.5975 72.8694 33.728C72.8694 28.7129 75.9734 25.8738 80.0522 25.8738C84.1865 25.8738 86.575 29.1977 86.575 33.5515V34.9414H76.731ZM69.5935 41.3481C66.4321 41.3481 65.0907 39.16 65.0907 36.9989V21.9811H68.9654V26.132H71.8863V29.2465H68.9654V36.7575C68.9654 37.6425 69.3857 38.1338 70.31 38.1338H71.8863V41.3481H69.5935ZM46.1621 24.0266H42.2548V20.3364H46.1621V24.0266ZM46.1719 41.5273C43.2459 41.2478 42.2506 39.4832 42.2506 37.447L42.2548 26.132H46.172V41.5273H46.1719ZM92.742 41.2018C89.822 40.9218 88.8314 39.16 88.8314 37.1266V19.8112H92.742V41.2018ZM106.413 22.3136C102.869 5.13472 69.3287 4.04719 47.7099 17.1323V18.5769C69.3068 7.54194 99.9364 7.60695 102.727 23.4295C103.661 28.6614 100.695 34.1162 95.3995 37.2515V41.3537C101.774 39.0351 108.311 31.5167 106.413 22.3136ZM67.1149 52.3701C52.1945 53.7413 36.6464 51.5881 34.4709 39.9963C33.406 34.282 36.0243 28.2244 39.4978 24.4617V22.4497C33.2449 27.9012 29.8513 34.803 31.805 42.958C34.2986 53.4153 47.6427 59.3415 68.0103 57.3735C76.0687 56.5915 86.6161 54.0153 93.9488 50.0139V44.3293C87.2952 48.2684 76.285 51.5259 67.1149 52.3701Z" fill="#0071C5"/>
<path d="M97.2622 20.9608C97.2622 20.7723 97.1515 20.7124 96.8984 20.7124H96.6541V21.2459C96.6896 21.2459 96.8671 21.2524 96.8984 21.2524C97.1515 21.2524 97.2622 21.1684 97.2622 20.9919V20.9608V20.9608ZM97.6433 22.2837H97.3538C97.3276 22.2837 97.3047 22.2675 97.2935 22.2457L96.8984 21.5798C96.8914 21.5663 96.8573 21.5501 96.8437 21.5501H96.6663V22.2104C96.6663 22.2457 96.642 22.2837 96.5953 22.2837H96.3333C96.3006 22.2837 96.2679 22.2457 96.2679 22.2104V20.5401C96.2679 20.4435 96.3057 20.4031 96.3879 20.3906C96.4804 20.3785 96.7317 20.3701 96.8671 20.3701C97.3482 20.3701 97.6391 20.5113 97.6391 20.9608V20.9919C97.6391 21.27 97.4999 21.4168 97.2842 21.4888L97.6938 22.1774C97.6964 22.1913 97.7059 22.2104 97.7059 22.2266C97.7059 22.2536 97.6895 22.2837 97.6433 22.2837L97.6433 22.2837ZM96.9558 20.0688C96.2431 20.0688 95.6668 20.6538 95.6668 21.3583C95.6668 22.0636 96.2431 22.6394 96.9558 22.6394C97.6648 22.6394 98.2467 22.0636 98.2467 21.3583C98.2467 20.6538 97.6648 20.0688 96.9558 20.0688ZM96.9558 22.905C96.0899 22.905 95.3992 22.2104 95.3992 21.3583C95.3992 20.5076 96.0899 19.811 96.9558 19.811C97.8124 19.811 98.5162 20.5076 98.5162 21.3583C98.5162 22.2104 97.8124 22.905 96.9558 22.905Z" fill="#0071C5"/>
</g>
<defs>
<clipPath id="clip0_518_2868">
<rect width="76" height="50" fill="white" transform="translate(31 8)"/>
</clipPath>
</defs>
</svg>
