<svg width="138" height="17" viewBox="0 0 138 17" fill="none" xmlns="http://www.w3.org/2000/svg">
<g clip-path="url(#clip0_518_2873)">
<path d="M116.105 1.10864C116.105 1.10864 116.746 1.10864 117.013 1.30809C117.013 1.30809 117.282 1.50753 117.489 2.11683L121.969 15.4199C121.969 15.4199 122.031 15.5877 121.98 15.7252C121.98 15.7252 121.928 15.8614 121.7 15.8614H119.801C119.801 15.8614 119.574 15.8614 119.44 15.8091C119.44 15.8091 119.305 15.7569 119.223 15.5258L118.315 12.647H113.07L112.162 15.5038C112.162 15.5038 112.099 15.6936 111.986 15.7775C111.986 15.7775 111.872 15.8614 111.625 15.8614H109.725C109.725 15.8614 109.498 15.8614 109.436 15.7252C109.436 15.7252 109.375 15.5877 109.436 15.4199L113.895 2.11683C113.895 2.11683 113.999 1.80187 114.102 1.61344C114.102 1.61344 114.206 1.42363 114.36 1.3191C114.36 1.3191 114.516 1.21319 114.723 1.16092C114.723 1.16092 114.928 1.10864 115.217 1.10864H116.105ZM115.713 3.94613H115.61L114.763 6.86478L113.69 10.4546H117.654L116.581 6.92666L115.713 3.94613Z" fill="black"/>
<path d="M73.4676 1.14844C73.4676 1.14844 73.7568 1.14844 73.8595 1.22272C73.8595 1.22272 73.9622 1.29561 73.9622 1.58995L73.9622 7.03932H80.3843V1.58995C80.3843 1.58995 80.3843 1.31622 80.4992 1.23234C80.4992 1.23234 80.6127 1.14844 80.86 1.14844H82.4331C82.4331 1.14844 82.7223 1.14844 82.8156 1.22272C82.8156 1.22272 82.9088 1.29561 82.9088 1.58995V15.4197C82.9088 15.4197 82.9088 15.7141 82.8156 15.7883C82.8156 15.7883 82.7223 15.8612 82.4331 15.8612H80.86C80.86 15.8612 80.6127 15.8612 80.4992 15.7773C80.4992 15.7773 80.3843 15.6934 80.3843 15.4197V9.24412H73.9622V15.4197C73.9622 15.4197 73.9622 15.7141 73.8595 15.7883C73.8595 15.7883 73.7568 15.8612 73.4676 15.8612H71.8999C71.8999 15.8612 71.6729 15.8612 71.5499 15.7773C71.5499 15.7773 71.4256 15.6934 71.4256 15.4197L71.4255 1.58995C71.4256 1.58995 71.4256 1.31622 71.5499 1.23234C71.5499 1.23234 71.6729 1.14844 71.8999 1.14844H73.4676Z" fill="black"/>
<path d="M67.1755 1.14844C67.1755 1.14844 67.4026 1.14844 67.4755 1.23234C67.4755 1.23234 67.5472 1.31761 67.5472 1.54869V3.00248C67.5472 3.00248 67.5472 3.21294 67.4755 3.29682C67.4755 3.29682 67.4026 3.38073 67.1755 3.38073H63.2536V15.4197C63.2536 15.4197 63.2536 15.7141 63.1604 15.7883C63.1604 15.7883 63.0671 15.8612 62.7779 15.8612H61.1643C61.1643 15.8612 60.917 15.8612 60.8035 15.7773C60.8035 15.7773 60.69 15.6934 60.69 15.4197V3.38073H56.8492C56.8492 3.38073 56.6221 3.38073 56.56 3.29682C56.56 3.29682 56.4978 3.21294 56.4978 3.00248L56.4978 1.54869C56.4978 1.54869 56.4978 1.31761 56.56 1.23234C56.56 1.23234 56.6221 1.14844 56.8492 1.14844H67.1755Z" fill="black"/>
<path d="M41.0216 1.06115C45.0538 1.06115 48.3199 4.38524 48.3199 8.48901C48.3199 12.59 45.0538 15.9169 41.0216 15.9169H24.9336C24.3583 15.9169 23.8921 15.4424 23.8921 14.8569C23.8921 14.2715 24.3583 13.797 24.9336 13.797H28.6823C29.2548 13.797 29.721 13.3225 29.721 12.7371C29.721 12.1516 29.2548 11.6771 28.6823 11.6771H27.848C27.2728 11.6771 26.8066 11.2027 26.8066 10.6172C26.8066 10.0317 27.2728 9.55727 27.848 9.55727H30.3481C30.9265 9.55563 31.3751 9.07586 31.3895 8.49734C31.3895 7.91188 30.9233 7.4374 30.3481 7.4374H21.5993C21.0241 7.4374 20.5579 6.96293 20.5579 6.37747C20.5579 5.79201 21.0241 5.31753 21.5993 5.31753H28.0553C28.6337 5.3159 29.0823 4.83612 29.0967 4.2576C29.0967 3.67214 28.6305 3.19766 28.0552 3.19766H26.5994C26.0241 3.19766 25.5579 2.72319 25.5579 2.13773C25.5579 1.55227 26.0241 1.05005 26.5994 1.05005L41.0216 1.06115ZM39.8547 3.53618C37.6137 3.53618 35.8007 5.38413 35.8007 7.66215V9.3131C35.8007 11.5939 37.6137 13.4391 39.8547 13.4391C42.093 13.4391 43.9088 11.5939 43.9088 9.3131V7.66215C43.9088 5.38413 42.093 3.53618 39.8547 3.53618ZM41.2397 7.4374C41.7795 7.4374 42.2184 7.88413 42.2184 8.43352V8.56115C42.2184 9.11054 41.7795 9.55727 41.2397 9.55727H38.1971C37.6573 9.55727 37.2184 9.11054 37.2184 8.56115V8.43352C37.2184 7.88413 37.6573 7.4374 38.1971 7.4374H41.2397Z" fill="black"/>
<path d="M21.662 13.7971C22.2045 13.7971 22.6407 14.2411 22.6407 14.7932V14.9209C22.6407 15.4703 22.2045 15.917 21.662 15.917H18.0605C17.5207 15.917 17.0818 15.4703 17.0818 14.9209V14.7932C17.0818 14.2411 17.5207 13.7971 18.0605 13.7971H21.662Z" fill="black"/>
<path d="M97.5056 1.13477C97.5056 1.13477 97.7732 1.13477 97.8461 1.25169C97.8461 1.25169 97.9178 1.36723 97.9178 1.61892V2.94481C97.9178 2.94481 97.9178 3.21853 97.8461 3.31343C97.8461 3.31343 97.7732 3.40832 97.5056 3.40832H92.0134C92.0134 3.40832 91.2282 3.40832 90.9079 3.76457C90.9079 3.76457 90.5889 4.12217 90.5889 4.79337V6.99817H96.8231C96.8231 6.99817 97.0921 6.99817 97.165 7.10408C97.165 7.10408 97.2367 7.2086 97.2367 7.50158V8.65555C97.2367 8.65555 97.2367 8.90724 97.165 9.02142C97.165 9.02142 97.0921 9.13693 96.8231 9.13693H90.5889V12.2082C90.5889 12.2082 90.5889 12.8808 90.9295 13.2274C90.9295 13.2274 91.2701 13.5754 92.0134 13.5754H97.6286C97.6286 13.5754 97.9178 13.5754 97.9908 13.6799C97.9908 13.6799 98.0624 13.7845 98.0624 14.0788V15.3786C98.0624 15.3786 98.0624 15.6097 97.9799 15.7348C97.9799 15.7348 97.8975 15.8613 97.6286 15.8613H91.7444C91.7444 15.8613 90.6498 15.8613 89.947 15.5464C89.947 15.5464 89.2443 15.2314 88.8199 14.706C88.8199 14.706 88.3956 14.1806 88.2307 13.508C88.2307 13.508 88.0645 12.8368 88.0645 12.101V4.91717C88.0645 4.91717 88.0645 4.18132 88.2604 3.49911C88.2604 3.49911 88.4577 2.81554 88.9024 2.29012C88.9024 2.29012 89.347 1.76609 90.0497 1.44975C90.0497 1.44975 90.7538 1.13477 91.7444 1.13477H97.5056Z" fill="black"/>
<path d="M104.769 1.14844C104.769 1.14844 105.057 1.14844 105.161 1.22272C105.161 1.22272 105.264 1.29561 105.264 1.58995V15.4197C105.264 15.4197 105.264 15.7141 105.161 15.7883C105.161 15.7883 105.057 15.8612 104.769 15.8612H103.201C103.201 15.8612 102.954 15.8612 102.841 15.7773C102.841 15.7773 102.727 15.6934 102.727 15.4197V1.58995C102.727 1.58995 102.727 1.31622 102.841 1.23234C102.841 1.23234 102.954 1.14844 103.201 1.14844H104.769Z" fill="black"/>
<path d="M23.3304 1.07788C23.8702 1.07788 24.3064 1.52461 24.3064 2.07399V2.20441C24.3064 2.75379 23.8702 3.19774 23.3304 3.19774H19.3091C18.7693 3.19774 18.3303 2.75379 18.3303 2.20441V2.07399C18.3303 1.52461 18.7693 1.07788 19.3091 1.07788H23.3304Z" fill="black"/>
<path d="M24.5792 9.55737C25.119 9.55737 25.5579 10.0041 25.5579 10.5535V10.6811C25.5579 11.2305 25.119 11.6772 24.5792 11.6772H22.3708C21.831 11.6772 21.3921 11.2305 21.3921 10.6811V10.5535C21.3921 10.0041 21.831 9.55737 22.3708 9.55737H24.5792Z" fill="black"/>
</g>
<defs>
<clipPath id="clip0_518_2873">
<rect width="105" height="15" fill="white" transform="translate(17 1)"/>
</clipPath>
</defs>
</svg>
